<svg id="Layer_1" data-name="Layer 1" xmlns="http://www.w3.org/2000/svg" viewBox="0 0 229.77 229.77"><defs><style>.cls-1{fill:#f7941d;}.cls-2{fill:#fff;}.cls-3{fill:#58595b;}.cls-4{stroke:#fff;stroke-miterlimit:10;}</style></defs><title>documentation</title><circle class="cls-1" cx="114.89" cy="114.89" r="114.89"/><path class="cls-2" d="M58.5,48.86a9.31,9.31,0,0,1-2.16,3c-3.52,3.41-7.46,3-10.27.07-3.37-3.47-2.75-7.78.32-10.77a8.18,8.18,0,0,1,2.94-2l1.28,2.28a6.6,6.6,0,0,0-2.3,1.5c-1.81,1.75-2.16,4.23,0,6.49,2,2,4.42,2.15,6.46.17a7.67,7.67,0,0,0,1.61-2.2Z"/><path class="cls-2" d="M51.65,36.77l2.56-1.91L61.07,44l4.51-3.37,1.61,2.16-7.06,5.28Z"/><path class="cls-2" d="M63.92,28.33,71.3,40.41l-2.72,1.66L61.19,30Z"/><path class="cls-2" d="M82.54,34.29a9.67,9.67,0,0,1-3,2.11c-4.42,2.11-8,.43-9.76-3.21-2.08-4.36-.12-8.25,3.74-10.1a8.08,8.08,0,0,1,3.42-.93l.48,2.56a6.82,6.82,0,0,0-2.65.69c-2.27,1.08-3.39,3.32-2,6.16C74,34.13,76.25,35,78.8,33.79A7.68,7.68,0,0,0,81,32.22Z"/><path class="cls-2" d="M80,20.57l3-.95,1.88,6h0c.13-.62.3-1.2.47-1.78L87,18.35l3.76-1.18-2.66,7.15,7.12,6.29-3.54,1.11-5.16-4.79-.69,1.78,1.38,4.41-3,1Z"/><path class="cls-2" d="M101.78,15.28l.56,5.41,5.25-.54L107,14.74l3.18-.33,1.46,14.08-3.18.32-.61-5.89-5.24.55.61,5.89-3.17.33L98.61,15.61Z"/><path class="cls-2" d="M122.61,22.86l-5.21-.2L117.28,26l5.81.22-.1,2.62-9-.34.53-14.14,8.71.33-.1,2.62-5.52-.2-.11,2.93,5.21.2Z"/><path class="cls-2" d="M127.06,15.27a26.83,26.83,0,0,1,4.26.42c2.07.35,3.47.91,4.33,1.87a3.6,3.6,0,0,1,.8,3.16,3.75,3.75,0,0,1-3,3v.06a3.54,3.54,0,0,1,1.43,2.9,41.46,41.46,0,0,0,.44,4.15L132,30.28a18.56,18.56,0,0,1-.4-3.41c-.09-1.83-.62-2.39-1.92-2.63l-.93-.16-.93,5.49L124.72,29Zm2.11,6.53,1.24.22c1.58.26,2.64-.37,2.85-1.59s-.54-2.07-2-2.32a6.65,6.65,0,0,0-1.45-.14Z"/><path class="cls-2" d="M146.29,28l-5-1.55-1,3.21,5.56,1.73-.78,2.5-8.6-2.67,4.19-13.51L149,20.31l-.78,2.51L143,21.18,142.09,24l5,1.54Z"/><path class="cls-2" d="M156.94,23.58l7.68,3.93-1.2,2.34-4.84-2.48-1.47,2.88,4.52,2.31-1.19,2.32-4.52-2.32-2.59,5.07-2.84-1.45Z"/><path class="cls-2" d="M174.62,42.64c-2.71,3.79-6.6,4.45-10,2s-3.58-6.44-1.23-9.75,6.52-4.45,9.91-2S176.89,39.44,174.62,42.64Zm-8.43-5.8c-1.62,2.28-1.69,4.62.05,5.87s4,.29,5.56-2c1.49-2.08,1.78-4.56,0-5.84S167.79,34.6,166.19,36.84Z"/><path class="cls-2" d="M181.27,39.63a27.45,27.45,0,0,1,3.26,2.76c1.51,1.47,2.34,2.72,2.51,4a3.58,3.58,0,0,1-1.13,3.06,3.75,3.75,0,0,1-4.2.75l-.05,0a3.53,3.53,0,0,1-.47,3.2c-.81,1.47-1.8,3.09-2,3.67l-2.35-2.29a18.93,18.93,0,0,1,1.6-3c1-1.56.84-2.32-.09-3.25l-.68-.66-3.88,4-2.27-2.21Zm-2,6.58.91.88c1.14,1.11,2.37,1.2,3.24.31s.73-2-.33-3a6.16,6.16,0,0,0-1.11-.93Z"/><path class="cls-2" d="M43.32,169.62a27.87,27.87,0,0,1,3.08,3c1.78,2,2.57,3.7,2.69,5.37a6.24,6.24,0,0,1-2.43,5.32,7.25,7.25,0,0,1-5.86,2c-1.91-.31-3.86-1.65-5.69-3.73a26.68,26.68,0,0,1-2.23-2.88Zm-6.57,10a6.53,6.53,0,0,0,.69.88c1.9,2.21,4.36,2.59,6.91.37,2.21-1.94,2.25-4.26.42-6.35a7.31,7.31,0,0,0-1.05-1Z"/><path class="cls-2" d="M58.74,193.82c-3,3.6-6.9,4-10.11,1.33s-3.12-6.68-.54-9.81,6.82-4,10-1.34S61.23,190.79,58.74,193.82Zm-8-6.37c-1.78,2.15-2,4.49-.36,5.85s3.93.57,5.68-1.55,2.09-4.42.39-5.83S52.49,185.32,50.74,187.45Z"/><path class="cls-2" d="M66.66,206.61a9.48,9.48,0,0,1-3.41-1.33c-4.21-2.51-4.8-6.43-2.73-9.89,2.47-4.15,6.79-4.68,10.47-2.48a7.91,7.91,0,0,1,2.67,2.32l-1.86,1.82a7,7,0,0,0-2-1.82c-2.17-1.29-4.65-1-6.26,1.72-1.45,2.43-.93,4.82,1.51,6.28a7.84,7.84,0,0,0,2.54,1Z"/><path class="cls-2" d="M78.4,196.88l-3.09,7.52c-.93,2.27-.53,3.78,1,4.39s2.85-.1,3.81-2.43l3.09-7.51,2.95,1.21-3,7.34c-1.65,4-4.48,5.13-7.9,3.72s-4.47-4-2.76-8.15l3-7.3Z"/><path class="cls-2" d="M98.44,212.05c.3-1.68.67-3.7,1.1-5.71h0c-.83,1.67-1.83,3.51-2.71,5l-2.85,5-2.44-.52-.33-5.66c-.1-1.74-.13-3.8-.08-5.68h0c-.46,1.85-1,4-1.46,5.67l-1.4,5.2-2.89-.62,3.87-13.65,4.16.9.36,4.91c.11,1.7.15,3.51.1,5.2l.09,0c.71-1.52,1.58-3.25,2.38-4.69l2.45-4.28,4.1.89-2.24,14-3-.66Z"/><path class="cls-2" d="M113.82,212.83l-5.2-.28-.18,3.36,5.81.31-.14,2.62-9-.48.75-14.13,8.71.46-.14,2.62-5.52-.29-.15,2.93,5.2.28Z"/><path class="cls-2" d="M118.13,218.85l-1.22-14.1,3.72-.33,3.38,4.91a46.54,46.54,0,0,1,2.72,4.64h0a56.71,56.71,0,0,1-.76-5.87l-.36-4.1,2.93-.26,1.22,14.1-3.34.29L123,212.94a47,47,0,0,1-2.88-4.76H120c.27,1.87.48,3.85.68,6.15l.37,4.25Z"/><path class="cls-2" d="M134.45,205.2l-3.73.87-.61-2.61L140.7,201l.62,2.61-3.77.88,2.62,11.17-3.11.73Z"/><path class="cls-2" d="M147.49,209.7l.31,3.75-3.09,1.14-.86-14.76,3.94-1.45,9,11.75-3.25,1.2-2.28-3Zm2.54-3.49-1.87-2.51c-.52-.7-1.12-1.6-1.61-2.32l0,0c.09.86.27,1.94.33,2.78l.25,3.11Z"/><path class="cls-2" d="M155.57,197.87l-3.4,1.74L151,197.22l9.67-5,1.23,2.39-3.44,1.76,5.23,10.2-2.84,1.45Z"/><path class="cls-2" d="M164.58,189.57l7.64,11.92-2.68,1.73-7.65-11.92Z"/><path class="cls-2" d="M181.31,185.37c3,3.61,2.57,7.54-.65,10.18s-7.16,1.76-9.73-1.38-2.59-7.46.63-10.1C174.93,181.32,178.82,182.33,181.31,185.37Zm-7.8,6.61c1.76,2.16,4,2.85,5.67,1.49s1.33-3.74-.42-5.87-3.93-2.92-5.64-1.52S171.76,189.85,173.51,192Z"/><path class="cls-2" d="M188.86,188l-10.61-9.37,2.48-2.8,5.83,1.23a44.63,44.63,0,0,1,5.16,1.49l0,0a56.74,56.74,0,0,1-4.6-3.73l-3.09-2.72,1.95-2.2,10.6,9.36-2.22,2.52-6.09-1.35a48.66,48.66,0,0,1-5.37-1.46l-.06.06c1.49,1.17,3,2.46,4.74,4l3.19,2.82Z"/><rect class="cls-2" x="70" y="60.91" width="89.77" height="107.95"/><rect class="cls-1" x="75.62" y="67.67" width="78.53" height="94.44"/><rect class="cls-3" x="89.23" y="80.27" width="51.32" height="30.11"/><rect class="cls-3" x="89.23" y="118.77" width="51.32" height="5" rx="2.5" ry="2.5"/><rect class="cls-3" x="89.23" y="130.65" width="51.32" height="5" rx="2.5" ry="2.5"/><rect class="cls-3" x="89.23" y="142.52" width="51.32" height="5" rx="2.5" ry="2.5"/><polygon class="cls-2" points="120.77 153.86 69 168.86 69 60.91 120.77 45.91 120.77 153.86"/><path class="cls-4" d="M194.22,160.07c-3.21.94-7.11-.1-10.86-1.73-5.31-2.3-10.67-4.5-16-6.75-2.39-1-4.37-2.53-4.93-5.29a5.29,5.29,0,0,1,3.7-5.82,9.12,9.12,0,0,1,4.64-.07c.24.06.54.24.73,0s0-.54-.19-.78c-2.35-3.76-4.73-7.51-7.06-11.29-1.68-2.72-3.35-5.46-4.93-8.24a6.77,6.77,0,0,1-.89-4.52,5.36,5.36,0,0,1,7.65-4,9.34,9.34,0,0,1,4.28,4.21c1.35,2.3,3,4.41,4.44,6.62a.75.75,0,0,0,1.26.24,6.63,6.63,0,0,1,5.5-1.12,1.92,1.92,0,0,0,1.45-.31,8.13,8.13,0,0,1,6.08-1.12,2.39,2.39,0,0,0,1.95-.35c3.57-2.28,7.78-.34,9.76,2a48.41,48.41,0,0,1,6.62,10.5,37.07,37.07,0,0,1,3.19,7.63,13.61,13.61,0,0,1-2.76,12C204.62,156.07,200.33,158.69,194.22,160.07Zm0-3.66a16.5,16.5,0,0,0,7.94-3.74c4.83-3.94,7-9,3.82-15.28-.65-1.3-1.33-2.59-1.93-3.92a37.21,37.21,0,0,0-5.92-9.37,4.25,4.25,0,0,0-4.37-1.62c-.88.21-.95.66-.51,1.33s1,1.46,1.44,2.19a1.4,1.4,0,0,1-.47,2.21c-.7.49-1.4.31-2-.55s-1.11-1.62-1.67-2.43a3.46,3.46,0,0,0-4.11-1.62c-1.61.36-1.72.65-.74,2,.75,1,1.51,2,2.23,3.1a1.56,1.56,0,0,1-.25,2.33c-.72.53-1.43.36-2.16-.52-.14-.16-.26-.34-.39-.52-.91-1.27-1.8-2.56-2.74-3.81a3,3,0,0,0-4.16-.68c-.84.55-1,1.09-.4,2,1.27,1.82,2.45,3.7,3.67,5.56.55.84.47,1.59-.29,2.07a1.49,1.49,0,0,1-2.15-.29,15.73,15.73,0,0,1-.95-1.45c-3.71-5.76-8-11.15-11.61-16.94a3.75,3.75,0,0,0-1.8-1.53,2.06,2.06,0,0,0-2.17.25,1.76,1.76,0,0,0-.5,1.9,6.53,6.53,0,0,0,.69,2c2.72,4.51,5.45,9,8.23,13.5,2.3,3.71,4.66,7.38,7,11.07a1.57,1.57,0,0,1,.05,2c-.51.62-1.21.5-1.91.26-1.83-.63-3.66-1.22-5.5-1.82a5.34,5.34,0,0,0-3.33-.13,1.68,1.68,0,0,0-.84,2.83,6.48,6.48,0,0,0,2.3,1.63c2.21,1,4.51,1.86,6.78,2.73,4.08,1.57,7.89,3.78,12.12,5A11.07,11.07,0,0,0,194.21,156.41Z"/><path class="cls-4" d="M154.05,101.05a1.63,1.63,0,0,1,1.82.71c1.24,1.78,2.46,3.59,3.61,5.44a1.74,1.74,0,0,1-.46,2.44,1.5,1.5,0,0,1-2.3-.38c-1.4-1.89-2.71-3.86-3.95-5.87A1.72,1.72,0,0,1,154.05,101.05Z"/><path class="cls-4" d="M148.17,125a1.59,1.59,0,0,1,.66-1.82c1.77-1.2,3.53-2.43,5.35-3.55a1.71,1.71,0,0,1,2.61.67,1.82,1.82,0,0,1-.74,2.35q-2.66,1.81-5.37,3.52A1.68,1.68,0,0,1,148.17,125Z"/><path class="cls-4" d="M166.13,98.75a1.66,1.66,0,0,1,2.14,1.87c-.33,2.16-.75,4.3-1.22,6.43a1.79,1.79,0,1,1-3.5-.77c.35-2,.75-3.93,1.15-5.89A2,2,0,0,1,166.13,98.75Z"/><path class="cls-4" d="M172.06,112.42a1.56,1.56,0,0,1-1.94-.8,1.62,1.62,0,0,1,.46-2.24c1.29-.94,2.64-1.8,4-2.69.46-.3.89-.63,1.36-.92a1.77,1.77,0,0,1,2.11,2.85c-1,.76-2,1.4-3.07,2.06A11,11,0,0,1,172.06,112.42Z"/><path class="cls-4" d="M147.25,111a3,3,0,0,1,1.33,0l5.45,1.13a1.92,1.92,0,0,1,1.65,2.3,1.83,1.83,0,0,1-2.28,1.18c-2-.37-4.08-.79-6.11-1.2-1.08-.22-1.32-1.07-1.32-2S146.63,111.2,147.25,111Z"/></svg>