<svg id="Layer_1" data-name="Layer 1" xmlns="http://www.w3.org/2000/svg" viewBox="0 0 229.77 229.77"><defs><style>.cls-1{fill:#f7941d;}.cls-2{fill:#fff;}.cls-3{fill:#58595b;}.cls-4{stroke:#fff;stroke-miterlimit:10;}</style></defs><title>documentation</title><circle class="cls-1" cx="114.89" cy="114.89" r="114.89"/><rect class="cls-2" x="70" y="60.91" width="89.77" height="107.95"/><rect class="cls-1" x="75.62" y="67.67" width="78.53" height="94.44"/><rect class="cls-3" x="89.23" y="80.27" width="51.32" height="30.11"/><rect class="cls-3" x="89.23" y="118.77" width="51.32" height="5" rx="2.5" ry="2.5"/><rect class="cls-3" x="89.23" y="130.65" width="51.32" height="5" rx="2.5" ry="2.5"/><rect class="cls-3" x="89.23" y="142.52" width="51.32" height="5" rx="2.5" ry="2.5"/><polygon class="cls-2" points="120.77 153.86 69 168.86 69 60.91 120.77 45.91 120.77 153.86"/><path class="cls-2" d="M60.25,40.45a8.13,8.13,0,0,1-3.1.52C53,41,50.8,38.34,50.8,34.89c0-4.15,3-6.43,6.62-6.43a6.83,6.83,0,0,1,3,.54l-.57,2.16a5.71,5.71,0,0,0-2.31-.45,3.64,3.64,0,0,0-3.85,4,3.62,3.62,0,0,0,3.87,4,6.66,6.66,0,0,0,2.31-.39Z"/><path class="cls-2" d="M62.08,28.64h2.74v9.83h4.83v2.3H62.08Z"/><path class="cls-2" d="M74,28.64V40.77H71.28V28.64Z"/><path class="cls-2" d="M85.29,40.45a8.18,8.18,0,0,1-3.1.52c-4.19,0-6.35-2.63-6.35-6.08,0-4.15,3-6.43,6.62-6.43a6.9,6.9,0,0,1,3,.54l-.58,2.16a5.66,5.66,0,0,0-2.3-.45,3.64,3.64,0,0,0-3.85,4,3.62,3.62,0,0,0,3.87,4,6.64,6.64,0,0,0,2.3-.39Z"/><path class="cls-2" d="M87.1,28.64h2.72V34h0c.27-.47.56-.9.84-1.33l2.74-4h3.39l-4,5.16,4.21,7H93.84l-3-5.24-1,1.28v4H87.1Z"/><path class="cls-2" d="M104.55,28.64V33.3h4.52V28.64h2.73V40.77h-2.73V35.7h-4.52v5.07h-2.74V28.64Z"/><path class="cls-2" d="M121.41,35.64H117v2.88h5v2.25h-7.73V28.64h7.47v2.25H117v2.52h4.46Z"/><path class="cls-2" d="M123.81,28.8a24.37,24.37,0,0,1,3.65-.25,6.25,6.25,0,0,1,3.93.95,3.1,3.1,0,0,1,1.13,2.56,3.22,3.22,0,0,1-2.14,3v0A3.08,3.08,0,0,1,132,37.33c.38,1.39.74,3,1,3.44h-2.81a17,17,0,0,1-.83-2.82c-.34-1.53-.86-1.93-2-2h-.82v4.77h-2.71ZM126.52,34h1.09c1.36,0,2.17-.68,2.17-1.75s-.75-1.67-2-1.67a5.79,5.79,0,0,0-1.25.09Z"/><path class="cls-2" d="M141.7,35.64h-4.47v2.88h5v2.25H134.5V28.64H142v2.25h-4.74v2.52h4.47Z"/><path class="cls-2" d="M147.74,28.64h7.41v2.25h-4.67v2.77h4.36v2.23h-4.36v4.88h-2.74Z"/><path class="cls-2" d="M168.32,34.58c0,4-2.39,6.39-6,6.39s-5.71-2.72-5.71-6.19c0-3.64,2.35-6.36,5.91-6.36C166.29,28.42,168.32,31.21,168.32,34.58Zm-8.77.14c0,2.4,1.12,4.07,3,4.07s2.91-1.76,2.91-4.12c0-2.2-1-4.07-2.91-4.07S159.55,32.36,159.55,34.72Z"/><path class="cls-2" d="M170.12,28.8a24.47,24.47,0,0,1,3.65-.25,6.23,6.23,0,0,1,3.93.95,3.08,3.08,0,0,1,1.13,2.56,3.21,3.21,0,0,1-2.14,3v0a3,3,0,0,1,1.62,2.25c.38,1.39.74,3,1,3.44h-2.8a16,16,0,0,1-.83-2.82c-.34-1.53-.87-1.93-2-2h-.81v4.77h-2.72ZM172.84,34h1.08c1.37,0,2.18-.68,2.18-1.75s-.76-1.67-2-1.67a5.68,5.68,0,0,0-1.24.09Z"/><path class="cls-2" d="M43.63,179.32a24.61,24.61,0,0,1,3.7-.27,7.91,7.91,0,0,1,5,1.29,5.38,5.38,0,0,1,2.06,4.58,6.2,6.2,0,0,1-2,4.91,8.79,8.79,0,0,1-5.62,1.57,23.72,23.72,0,0,1-3.12-.18Zm2.74,9.88a4.7,4.7,0,0,0,1,.06c2.5,0,4.14-1.35,4.14-4.25a3.52,3.52,0,0,0-3.86-3.86,6.14,6.14,0,0,0-1.24.11Z"/><path class="cls-2" d="M67.27,185.08c0,4-2.39,6.39-6,6.39s-5.71-2.72-5.71-6.19c0-3.64,2.34-6.36,5.91-6.36C65.24,178.92,67.27,181.71,67.27,185.08Zm-8.77.14c0,2.4,1.12,4.07,3,4.07s2.91-1.76,2.91-4.12c0-2.2-1-4.07-2.91-4.07S58.5,182.86,58.5,185.22Z"/><path class="cls-2" d="M78,191a8.11,8.11,0,0,1-3.09.52c-4.2,0-6.36-2.63-6.36-6.08,0-4.15,2.95-6.43,6.63-6.43a6.9,6.9,0,0,1,3,.54l-.58,2.16a5.71,5.71,0,0,0-2.31-.45,4,4,0,0,0,0,8,6.66,6.66,0,0,0,2.31-.39Z"/><path class="cls-2" d="M82.52,179.14v7c0,2.1.81,3.16,2.19,3.16s2.23-1,2.23-3.16v-7h2.74v6.8c0,3.75-1.89,5.53-5.06,5.53s-4.84-1.71-4.84-5.56v-6.77Z"/><path class="cls-2" d="M102.32,186.63c-.06-1.46-.11-3.23-.11-5h0c-.39,1.55-.9,3.28-1.37,4.7l-1.47,4.73H97.19l-1.3-4.68c-.4-1.44-.79-3.17-1.1-4.75h0c-.06,1.64-.13,3.51-.2,5l-.24,4.61H91.78l.78-12.13h3.65l1.19,4.05c.4,1.4.76,2.92,1,4.34h.07c.32-1.41.74-3,1.15-4.36l1.28-4h3.6l.65,12.13h-2.66Z"/><path class="cls-2" d="M114.5,186.14H110V189h5v2.25H107.3V179.14h7.47v2.25H110v2.52h4.46Z"/><path class="cls-2" d="M116.89,191.27V179.14h3.21l2.52,4.44a39.59,39.59,0,0,1,2,4.16h0a47.72,47.72,0,0,1-.22-5.07v-3.53h2.52v12.13h-2.88l-2.59-4.68a41.5,41.5,0,0,1-2.11-4.28h-.07c.09,1.62.12,3.33.12,5.31v3.65Z"/><path class="cls-2" d="M131.67,181.44H128.4v-2.3h9.32v2.3h-3.31v9.83h-2.74Z"/><path class="cls-2" d="M140.71,188.16l-.87,3.11H137l3.69-12.13h3.6l3.78,12.13h-3l-.94-3.11Zm3.08-2-.76-2.58c-.22-.72-.43-1.62-.61-2.34h0c-.18.72-.36,1.64-.56,2.34l-.72,2.58Z"/><path class="cls-2" d="M150.55,181.44h-3.27v-2.3h9.32v2.3h-3.31v9.83h-2.74Z"/><path class="cls-2" d="M160.81,179.14v12.13h-2.73V179.14Z"/><path class="cls-2" d="M174.3,185.08c0,4-2.4,6.39-6,6.39s-5.71-2.72-5.71-6.19c0-3.64,2.34-6.36,5.91-6.36C172.26,178.92,174.3,181.71,174.3,185.08Zm-8.77.14c0,2.4,1.12,4.07,2.95,4.07s2.92-1.76,2.92-4.12c0-2.2-1-4.07-2.92-4.07S165.53,182.86,165.53,185.22Z"/><path class="cls-2" d="M176.1,191.27V179.14h3.2l2.52,4.44a39.59,39.59,0,0,1,2,4.16h0a50.53,50.53,0,0,1-.22-5.07v-3.53h2.52v12.13h-2.88l-2.59-4.68a41.5,41.5,0,0,1-2.11-4.28h-.07c.09,1.62.13,3.33.13,5.31v3.65Z"/><path class="cls-4" d="M194.22,160.07c-3.21.94-7.11-.1-10.86-1.73-5.31-2.3-10.67-4.5-16-6.75-2.39-1-4.37-2.53-4.93-5.29a5.29,5.29,0,0,1,3.7-5.82,9.12,9.12,0,0,1,4.64-.07c.24.06.54.24.73,0s0-.54-.19-.78c-2.35-3.76-4.73-7.51-7.06-11.29-1.68-2.72-3.35-5.46-4.93-8.24a6.77,6.77,0,0,1-.89-4.52,5.36,5.36,0,0,1,7.65-4,9.34,9.34,0,0,1,4.28,4.21c1.35,2.3,3,4.41,4.44,6.62a.75.75,0,0,0,1.26.24,6.63,6.63,0,0,1,5.5-1.12,1.92,1.92,0,0,0,1.45-.31,8.13,8.13,0,0,1,6.08-1.12,2.39,2.39,0,0,0,1.95-.35c3.57-2.28,7.78-.34,9.76,2a48.41,48.41,0,0,1,6.62,10.5,37.07,37.07,0,0,1,3.19,7.63,13.61,13.61,0,0,1-2.76,12C204.62,156.07,200.33,158.69,194.22,160.07Zm0-3.66a16.5,16.5,0,0,0,7.94-3.74c4.83-3.94,7-9,3.82-15.28-.65-1.3-1.33-2.59-1.93-3.92a37.21,37.21,0,0,0-5.92-9.37,4.25,4.25,0,0,0-4.37-1.62c-.88.21-.95.66-.51,1.33s1,1.46,1.44,2.19a1.4,1.4,0,0,1-.47,2.21c-.7.49-1.4.31-2-.55s-1.11-1.62-1.67-2.43a3.46,3.46,0,0,0-4.11-1.62c-1.61.36-1.72.65-.74,2,.75,1,1.51,2,2.23,3.1a1.56,1.56,0,0,1-.25,2.33c-.72.53-1.43.36-2.16-.52-.14-.16-.26-.34-.39-.52-.91-1.27-1.8-2.56-2.74-3.81a3,3,0,0,0-4.16-.68c-.84.55-1,1.09-.4,2,1.27,1.82,2.45,3.7,3.67,5.56.55.84.47,1.59-.29,2.07a1.49,1.49,0,0,1-2.15-.29,15.73,15.73,0,0,1-.95-1.45c-3.71-5.76-8-11.15-11.61-16.94a3.75,3.75,0,0,0-1.8-1.53,2.06,2.06,0,0,0-2.17.25,1.76,1.76,0,0,0-.5,1.9,6.53,6.53,0,0,0,.69,2c2.72,4.51,5.45,9,8.23,13.5,2.3,3.71,4.66,7.38,7,11.07a1.57,1.57,0,0,1,.05,2c-.51.62-1.21.5-1.91.26-1.83-.63-3.66-1.22-5.5-1.82a5.34,5.34,0,0,0-3.33-.13,1.68,1.68,0,0,0-.84,2.83,6.48,6.48,0,0,0,2.3,1.63c2.21,1,4.51,1.86,6.78,2.73,4.08,1.57,7.89,3.78,12.12,5A11.07,11.07,0,0,0,194.21,156.41Z"/><path class="cls-4" d="M154.05,101.05a1.63,1.63,0,0,1,1.82.71c1.24,1.78,2.46,3.59,3.61,5.44a1.74,1.74,0,0,1-.46,2.44,1.5,1.5,0,0,1-2.3-.38c-1.4-1.89-2.71-3.86-3.95-5.87A1.72,1.72,0,0,1,154.05,101.05Z"/><path class="cls-4" d="M148.17,125a1.59,1.59,0,0,1,.66-1.82c1.77-1.2,3.53-2.43,5.35-3.55a1.71,1.71,0,0,1,2.61.67,1.82,1.82,0,0,1-.74,2.35q-2.66,1.81-5.37,3.52A1.68,1.68,0,0,1,148.17,125Z"/><path class="cls-4" d="M166.13,98.75a1.66,1.66,0,0,1,2.14,1.87c-.33,2.16-.75,4.3-1.22,6.43a1.79,1.79,0,1,1-3.5-.77c.35-2,.75-3.93,1.15-5.89A2,2,0,0,1,166.13,98.75Z"/><path class="cls-4" d="M172.06,112.42a1.56,1.56,0,0,1-1.94-.8,1.62,1.62,0,0,1,.46-2.24c1.29-.94,2.64-1.8,4-2.69.46-.3.89-.63,1.36-.92a1.77,1.77,0,0,1,2.11,2.85c-1,.76-2,1.4-3.07,2.06A11,11,0,0,1,172.06,112.42Z"/><path class="cls-4" d="M147.25,111a3,3,0,0,1,1.33,0l5.45,1.13a1.92,1.92,0,0,1,1.65,2.3,1.83,1.83,0,0,1-2.28,1.18c-2-.37-4.08-.79-6.11-1.2-1.08-.22-1.32-1.07-1.32-2S146.63,111.2,147.25,111Z"/></svg>