<svg id="Layer_1" data-name="Layer 1" xmlns="http://www.w3.org/2000/svg" viewBox="0 0 229.77 229.77"><defs><style>.cls-1{fill:#3f6e93;}.cls-2{fill:#fff;}.cls-3{stroke:#fff;stroke-miterlimit:10;}.cls-4{fill:#212937;}.cls-5{fill:#2b333f;}.cls-6{fill:#3a3e49;}.cls-7{fill:#303640;}.cls-8{fill:#282e3a;}.cls-9{fill:#323843;}.cls-10{fill:#292f3a;}.cls-11{fill:#2b313c;}.cls-12{fill:#fefefe;}.cls-13{fill:#fcfcfc;}.cls-14{fill:#f1f0f1;}.cls-15{fill:#e1e1e2;}.cls-16{fill:#eee;}.cls-17{fill:#f6f6f6;}.cls-18{fill:#f4f4f4;}.cls-19{fill:#d0d3d4;}.cls-20{fill:#d8d8da;}.cls-21{fill:#dddddf;}.cls-22{fill:#e0e1e2;}.cls-23{fill:#dfe0e1;}.cls-24{fill:#c8c9cc;}.cls-25{fill:#c7c8cc;}.cls-26{fill:#ebebec;}.cls-27{fill:#222937;}.cls-28{fill:#222a37;}.cls-29{fill:#383e49;}</style></defs><title>vignette</title><circle class="cls-1" cx="114.89" cy="114.89" r="114.89"/><path class="cls-2" d="M187.71,580.64l-3.42-1.7,1.2-2.41,9.74,4.84-1.2,2.4-3.46-1.71-5.1,10.26-2.85-1.42Z" transform="translate(-115.34 -383.69)"/><path class="cls-2" d="M199.7,583l-2.55,7.72c-.77,2.33-.26,3.81,1.28,4.31s2.84-.3,3.63-2.69l2.54-7.72,3,1-2.48,7.54c-1.37,4.15-4.11,5.43-7.62,4.27s-4.74-3.66-3.34-7.93l2.48-7.5Z" transform="translate(-115.34 -383.69)"/><path class="cls-2" d="M212.43,589.26l-3.76-.67.47-2.64,10.71,1.9-.47,2.64-3.81-.67-2,11.29-3.15-.56Z" transform="translate(-115.34 -383.69)"/><path class="cls-2" d="M233.5,595.39c-.17,4.66-3.06,7.35-7.21,7.19s-6.54-3.41-6.39-7.45c.15-4.24,3-7.31,7.15-7.16C231.39,588.13,233.64,591.47,233.5,595.39Zm-10.22-.2c-.1,2.79,1.13,4.78,3.27,4.86s3.47-1.93,3.57-4.68c.09-2.56-1-4.78-3.23-4.86S223.38,592.44,223.28,595.19Z" transform="translate(-115.34 -383.69)"/><path class="cls-2" d="M235.7,588.43a28.82,28.82,0,0,1,4.2-.78c2.08-.23,3.58-.09,4.67.59a3.57,3.57,0,0,1,1.65,2.81,3.76,3.76,0,0,1-2.09,3.73v.06a3.52,3.52,0,0,1,2.17,2.39c.63,1.56,1.25,3.35,1.59,3.86l-3.26.37a19.09,19.09,0,0,1-1.33-3.17c-.6-1.72-1.26-2.11-2.57-2l-.94.1.63,5.53-3.15.36Zm3.84,5.69,1.25-.14c1.58-.18,2.43-1.08,2.29-2.31s-1.1-1.84-2.56-1.68a6.27,6.27,0,0,0-1.42.27Z" transform="translate(-115.34 -383.69)"/><path class="cls-2" d="M251,585.85l3,13.84-3.12.68-3-13.83Z" transform="translate(-115.34 -383.69)"/><path class="cls-2" d="M260.13,594.28l.2,3.76-3.12,1.05-.44-14.78,4-1.34,8.7,12-3.29,1.11L264,593Zm2.64-3.42L261,588.3c-.5-.72-1.08-1.63-1.54-2.36h0c.07.87.21,1.95.25,2.8l.16,3.11Z" transform="translate(-115.34 -383.69)"/><path class="cls-2" d="M266.48,580.73l2.86-1.41,5.1,10.27,5-2.51,1.2,2.41-7.91,3.93Z" transform="translate(-115.34 -383.69)"/><path class="cls-3" d="M309.56,543.76c-3.2.94-7.1-.09-10.86-1.72-5.31-2.31-10.67-4.5-16-6.76-2.39-1-4.37-2.52-4.93-5.29a5.27,5.27,0,0,1,3.71-5.81,9,9,0,0,1,4.63-.08c.24.07.54.25.73,0s0-.54-.18-.78c-2.36-3.76-4.74-7.51-7.07-11.28-1.68-2.73-3.34-5.46-4.93-8.24a6.8,6.8,0,0,1-.89-4.53,5.37,5.37,0,0,1,7.65-4,9.43,9.43,0,0,1,4.28,4.21c1.35,2.3,3,4.41,4.44,6.63a.75.75,0,0,0,1.26.23,6.59,6.59,0,0,1,5.5-1.11,2,2,0,0,0,1.45-.32,8.13,8.13,0,0,1,6.08-1.11,2.47,2.47,0,0,0,1.95-.35c3.57-2.28,7.78-.35,9.76,1.94a48.41,48.41,0,0,1,6.62,10.5,37.15,37.15,0,0,1,3.19,7.64,13.62,13.62,0,0,1-2.76,12C320,539.77,315.67,542.38,309.56,543.76Zm0-3.66a16.36,16.36,0,0,0,7.94-3.73c4.83-4,7-9,3.82-15.28-.65-1.3-1.33-2.6-1.93-3.92a37.51,37.51,0,0,0-5.91-9.38,4.27,4.27,0,0,0-4.38-1.62c-.88.21-.95.66-.51,1.34s1,1.45,1.44,2.18a1.4,1.4,0,0,1-.46,2.21c-.71.5-1.41.32-2-.55s-1.11-1.62-1.67-2.42a3.45,3.45,0,0,0-4.11-1.62c-1.61.35-1.71.65-.74,2,.75,1,1.51,2.05,2.23,3.11a1.55,1.55,0,0,1-.25,2.32c-.72.53-1.42.36-2.16-.51-.14-.17-.26-.35-.39-.53-.91-1.27-1.8-2.56-2.74-3.81a3,3,0,0,0-4.16-.68c-.84.55-1,1.1-.4,2,1.27,1.82,2.45,3.7,3.67,5.56a1.34,1.34,0,0,1-.29,2.08,1.5,1.5,0,0,1-2.15-.29,15.88,15.88,0,0,1-.95-1.46c-3.71-5.76-7.94-11.15-11.61-16.94a3.75,3.75,0,0,0-1.8-1.53,2.06,2.06,0,0,0-2.17.26,1.76,1.76,0,0,0-.5,1.9,6.57,6.57,0,0,0,.69,1.95c2.72,4.52,5.45,9,8.23,13.5,2.3,3.71,4.66,7.39,7,11.07a1.6,1.6,0,0,1,.06,2c-.52.61-1.22.5-1.92.26-1.83-.63-3.66-1.23-5.5-1.83a5.38,5.38,0,0,0-3.32-.13,1.68,1.68,0,0,0-.85,2.83A6.36,6.36,0,0,0,284,532c2.21,1.05,4.51,1.86,6.79,2.74,4.08,1.56,7.89,3.77,12.11,5C305.18,540.42,307.4,540.82,309.55,540.1Z" transform="translate(-115.34 -383.69)"/><path class="cls-3" d="M269.39,484.75a1.62,1.62,0,0,1,1.82.7c1.25,1.79,2.46,3.6,3.61,5.45a1.73,1.73,0,0,1-.46,2.43,1.49,1.49,0,0,1-2.3-.38c-1.4-1.89-2.71-3.86-3.95-5.87A1.71,1.71,0,0,1,269.39,484.75Z" transform="translate(-115.34 -383.69)"/><path class="cls-3" d="M263.51,508.65a1.59,1.59,0,0,1,.66-1.82c1.77-1.19,3.53-2.42,5.35-3.54a1.72,1.72,0,0,1,2.61.66,1.82,1.82,0,0,1-.74,2.35c-1.76,1.21-3.56,2.38-5.37,3.52A1.68,1.68,0,0,1,263.51,508.65Z" transform="translate(-115.34 -383.69)"/><path class="cls-3" d="M281.47,482.45a1.65,1.65,0,0,1,2.14,1.86c-.33,2.16-.75,4.31-1.22,6.44a1.79,1.79,0,1,1-3.5-.78c.35-2,.75-3.93,1.15-5.89A2,2,0,0,1,281.47,482.45Z" transform="translate(-115.34 -383.69)"/><path class="cls-3" d="M287.41,496.12a1.58,1.58,0,0,1-2-.81,1.61,1.61,0,0,1,.46-2.23c1.29-.95,2.64-1.8,4-2.7.46-.3.9-.63,1.36-.91a1.7,1.7,0,0,1,2.49.41,1.73,1.73,0,0,1-.38,2.44c-1,.75-2,1.39-3.07,2.06A11.71,11.71,0,0,1,287.41,496.12Z" transform="translate(-115.34 -383.69)"/><path class="cls-3" d="M262.59,494.72a3.15,3.15,0,0,1,1.33,0c1.82.38,3.64.75,5.45,1.14a1.91,1.91,0,0,1,1.65,2.29,1.83,1.83,0,0,1-2.28,1.18c-2-.37-4.08-.78-6.11-1.2-1.07-.22-1.32-1.07-1.32-2S262,494.89,262.59,494.72Z" transform="translate(-115.34 -383.69)"/><path class="cls-4" d="M245.54,463.88a4.12,4.12,0,0,0-3.36,4.71q.76,11.32,1.62,22.64c.88,11.4,1.81,22.79,2.72,34.18.44,5.6.89,11.2,1.35,17,4.82-1.56,9.41-3,13.94-4.54a2.67,2.67,0,0,1,3,.57c5.81,4.84,11.7,9.6,17.52,14.43a7.17,7.17,0,0,0,3.43,1.58c6,1.09,12,2.26,18,3.42a8,8,0,0,1,1.4.61H155.29a1.81,1.81,0,0,1,1.25-.65c6.08-1.14,12.16-2.31,18.24-3.44a6.28,6.28,0,0,0,3-1.48c5.7-4.72,11.48-9.36,17.13-14.15A3.63,3.63,0,0,1,199,538c4.31,1.52,8.68,2.88,13.29,4.39.46-5.57.93-11,1.36-16.44q2.15-27,4.25-53.92c.25-3.23.71-6.6-3.31-8.13-.58-.22-.35-.83-.37-1.28,0-1,0-2.09,0-3.14,0-4.37.8-5.54,4.92-7.1.75-.28,2-.17,1.77-1.48s.74-2.78-1-3.85c-2-1.22-2-2.74.05-3.84a7.33,7.33,0,0,0,3.27-3.56,5.17,5.17,0,0,1,3.1-2.91c2.18-.62,4-1.29,3.83-4.46-.16,3.1,1.54,3.95,3.8,4.43a3.87,3.87,0,0,1,2.27,1.73c1.33,2.05,2.53,4.08,4.85,5.37,1.43.79.92,2.45-.43,3.1-2,.95-1.09,2.59-1.25,4s1.19,1.2,2,1.58c1.65.8,3.43,1.42,4.29,3.25.28.46.28.86-.24,1.16-1.49-.28-2.21-1.74-3.52-2.24-.18,1.12.22,2.25-.2,3.32-.21.54-.47,1.14-1.16.41-.76-1.32.18-3-.82-4.21-.37,1.62-.22,3.56-2.73,3.59-.58,0-.71,1-1.32,1.28a4.86,4.86,0,0,1-1.47.13c-2.23,0-4.45,0-6.64,0,2.85.19,5.68-.28,8.49.27,1.21,1,1.53,2.53,2,3.93.26.76.33,1.57-.67,2-2.72-.12-5.38-.92-8.13-.64-.8.08-1.61,0-2.41.12-3.69.48-4.69,1.48-5.1,5.16-.05.48-.06,1-.08,1.45-.15,3.81-.13,4,3.58,3.43a38.67,38.67,0,0,1,11.52.18c1.61.25,2.25-.16,2-1.87a22.87,22.87,0,0,1-.07-3.61c-.08-2.28,1.33-4.16,1.65-6.36.2-1.37,3.92-2.83,5.07-2.07C246.28,461.74,245.83,462.91,245.54,463.88Z" transform="translate(-115.34 -383.69)"/><path class="cls-5" d="M245.15,456.75l.42-1a16.23,16.23,0,0,1,0,8.16v-2.52a2.44,2.44,0,0,1-2.44.62,1.69,1.69,0,0,0-2.34,1.37c.29,2.32-1.71,3.92-1.56,6.09-1.57-1.05-1.08-3.05-2-4.39.94-2.09-.93-3.5-1.29-5.28.57-.78,1.15,0,1.72,0-.49-.49-1.64.11-1.72-1.05-.52-1,.16-1.88.86-1.78,2.63.38,2-1.39,2.05-2.76a1.44,1.44,0,0,1,.48-1.29c.79.83.59,1.89.67,2.89.07.84-.11,1.76.74,2.35,1.19-1.28.05-2.89.64-4.25,0-.05.12-.08.18-.08a.71.71,0,0,1,.21.11,3.46,3.46,0,0,1,.59,2.27,2.87,2.87,0,0,0,2,3C244.81,458.47,244.17,457.29,245.15,456.75Z" transform="translate(-115.34 -383.69)"/><path class="cls-6" d="M267.65,448.85c-6.42,1.14-12.8.51-19.18-.52C254.89,447.09,261.26,448.18,267.65,448.85Z" transform="translate(-115.34 -383.69)"/><path class="cls-7" d="M211.75,448.82c-6.44,1.31-12.83.21-19.23-.49C199,447.17,205.35,448,211.75,448.82Z" transform="translate(-115.34 -383.69)"/><path class="cls-8" d="M212.71,445c-6.25-.45-12-2.72-17.77-5.07C201.16,440.55,207,442.6,212.71,445Z" transform="translate(-115.34 -383.69)"/><path class="cls-9" d="M265.59,439.94c-5.84,2.27-11.61,4.67-17.93,5.11A59.48,59.48,0,0,1,265.59,439.94Z" transform="translate(-115.34 -383.69)"/><path class="cls-10" d="M195,457.11c5.43-2,10.65-4.42,16.48-4.58C206.21,454.86,200.8,456.76,195,457.11Z" transform="translate(-115.34 -383.69)"/><path class="cls-11" d="M265.19,457.34a21.14,21.14,0,0,1-2.12-.22,67.56,67.56,0,0,1-14.33-4.57C254.62,452.59,259.85,455.11,265.19,457.34Z" transform="translate(-115.34 -383.69)"/><path class="cls-12" d="M243.88,532.87a42.31,42.31,0,0,0-27.62,0c.39-4.66.82-9.36,1.15-14.06.09-1.14.75-1.48,1.65-1.73a40.61,40.61,0,0,1,22.11,0,1.79,1.79,0,0,1,1.56,1.79C243.06,523.54,243.48,528.18,243.88,532.87Z" transform="translate(-115.34 -383.69)"/><path class="cls-12" d="M241.74,503.65a43.19,43.19,0,0,0-23.33,0c.36-4.27.7-8.37,1.06-12.47.07-.77.74-1,1.37-1.15a34.66,34.66,0,0,1,18.33,0c.81.21,1.48.52,1.56,1.54C241,495.47,241.38,499.39,241.74,503.65Z" transform="translate(-115.34 -383.69)"/><path class="cls-12" d="M237.16,465.05c2.06.83,1.43,2.9,2,4.39.11,1.76.13,3.53.35,5.28.14,1.16-.18,1.39-1.28,1.2a46,46,0,0,0-16.5,0c-1,.17-1.33,0-1.21-1.07a48.62,48.62,0,0,0,.59-6.46c0-2.37,1.41-3.34,3.25-3.8A21.7,21.7,0,0,1,237.16,465.05Z" transform="translate(-115.34 -383.69)"/><path class="cls-13" d="M209.73,543.35c-2.71,3.77-2.8,4-6.74,2.29a8.29,8.29,0,0,0-8.85.83c-3.16,2.19-6.65,3.88-10,5.77-.68.38-1.32,1-2.28.57,4.66-4.2,9.29-8.36,13.91-12.55a1.94,1.94,0,0,1,2.12-.67C201.76,540.87,205.66,542.07,209.73,543.35Z" transform="translate(-115.34 -383.69)"/><path class="cls-13" d="M250.43,543.35c4.09-1.29,8-2.51,11.86-3.76A1.6,1.6,0,0,1,264,540c4.52,4.11,9.06,8.2,13.57,12.31.21.18.26.53.56,1.2-5.16-2.93-10-5.6-14.76-8.4a3.39,3.39,0,0,0-3.56-.33,23.11,23.11,0,0,1-2.72,1C253.08,547.12,253.08,547.12,250.43,543.35Z" transform="translate(-115.34 -383.69)"/><path class="cls-14" d="M230.22,450.35c-2.29.64-3-.24-3-2.61.06-2.13.34-3.13,2.86-3.1s2.8.91,2.7,3C232.73,449.42,232.93,451.14,230.22,450.35Z" transform="translate(-115.34 -383.69)"/><path class="cls-15" d="M234.37,447.46c.29-.4-1.08-2.18.64-2.21a2.52,2.52,0,0,1,2.63,3.38c-.17.79.89,2.16-1,2.32C234.3,451.16,233.73,450,234.37,447.46Z" transform="translate(-115.34 -383.69)"/><path class="cls-16" d="M226,448c-.55.87.77,2.43-1,2.75-.74.14-2.05.84-2.36-.09a5.4,5.4,0,0,1,.13-4.19,2.38,2.38,0,0,1,2.47-1.17C226.64,445.65,225.54,447.05,226,448Z" transform="translate(-115.34 -383.69)"/><path class="cls-17" d="M218.45,454.06c.63,3,.34,5.42-3.15,6C214.53,456.68,214.86,456,218.45,454.06Z" transform="translate(-115.34 -383.69)"/><path class="cls-18" d="M245.15,456.75v3.36c-4-1.52-4-1.52-3.45-6.21A10.23,10.23,0,0,1,245.15,456.75Z" transform="translate(-115.34 -383.69)"/><path class="cls-19" d="M235.87,458.71c1.15.74,2.76.33,3.85,1.45-1.52,1.4-2.55-.7-3.85-.39-3.8-.6-7.66-.11-11.6-.26.37-1,1-.73,1.48-.75a44.75,44.75,0,0,0,8.66,0Z" transform="translate(-115.34 -383.69)"/><path class="cls-20" d="M235.37,451.56c.79.39,2.46-.16,2.3,1.78,0,.51,0,1.45-.77,1s-2.67.19-2.74-1.67C234.14,451.93,234.25,451.33,235.37,451.56Z" transform="translate(-115.34 -383.69)"/><path class="cls-21" d="M225.91,453c-.15,1.45-1.82.88-2.76,1.33s-.65-.62-.67-1.11c-.08-1.79,1.46-1.34,2.4-1.64S225.94,451.94,225.91,453Z" transform="translate(-115.34 -383.69)"/><path class="cls-22" d="M220.91,455.53c-.38.74.73,2.54-.9,2.5-1.09,0-.3-1.71-.5-2.63a4.3,4.3,0,0,1,0-.95c0-.67.08-1.47.82-1.48,1,0,.46.92.58,1.44A5.75,5.75,0,0,1,220.91,455.53Z" transform="translate(-115.34 -383.69)"/><path class="cls-23" d="M240.67,458.12c-1,.25-1.46-.19-1.44-1.22,0-1.34,0-2.68,0-4,1.24-.08,1.4.72,1.39,1.68C240.64,455.75,240.67,456.93,240.67,458.12Z" transform="translate(-115.34 -383.69)"/><path class="cls-24" d="M229.47,452.22c.07.92-.39,1.15-1.15,1.16s-1-.3-1-1c0-.84.41-1.1,1.17-1.07S229.56,451.54,229.47,452.22Z" transform="translate(-115.34 -383.69)"/><path class="cls-25" d="M232.79,452.38c0,.81-.41,1-1.07,1-.82,0-1.1-.37-1.08-1.15,0-1,.67-.89,1.3-.88S232.84,451.85,232.79,452.38Z" transform="translate(-115.34 -383.69)"/><path class="cls-26" d="M234.41,458.77a21.77,21.77,0,0,1-8.66,0A44.75,44.75,0,0,1,234.41,458.77Z" transform="translate(-115.34 -383.69)"/><path class="cls-27" d="M227.66,523.52c.07-1.77-.55-3.95,2.35-4,1.49,0,2.48.57,2.48,2.23a27,27,0,0,0,0,3.12c.17,1.45-.49,1.68-1.77,1.67C227.66,526.49,227.66,526.55,227.66,523.52Z" transform="translate(-115.34 -383.69)"/><path class="cls-28" d="M232.08,495.3c0,2.95-.07,3-2.87,2.74-1-.08-1.22-.44-1.17-1.31a21.53,21.53,0,0,0,0-2.41c-.08-1.45.49-2.31,2-2.31s2.11.88,2,2.33C232.06,494.66,232.08,495,232.08,495.3Z" transform="translate(-115.34 -383.69)"/><path class="cls-29" d="M231.84,470.18c.13,1.14.09,2-1.78,2.07-2.2,0-1.74-1.28-1.79-2.5s0-2.78,1.8-2.76C232.08,467,231.84,468.64,231.84,470.18Z" transform="translate(-115.34 -383.69)"/><path class="cls-2" d="M173.85,432.56a9.43,9.43,0,0,1-2.17,2.95c-3.52,3.41-7.46,3-10.27.07-3.37-3.47-2.75-7.78.32-10.77a8.11,8.11,0,0,1,2.94-2l1.28,2.28a6.79,6.79,0,0,0-2.3,1.49c-1.81,1.76-2.16,4.23,0,6.49,2,2,4.42,2.15,6.46.18a7.71,7.71,0,0,0,1.61-2.21Z" transform="translate(-115.34 -383.69)"/><path class="cls-2" d="M167,420.47l2.56-1.91,6.86,9.18,4.51-3.37,1.61,2.15-7.06,5.28Z" transform="translate(-115.34 -383.69)"/><path class="cls-2" d="M179.26,412l7.38,12.07-2.72,1.66-7.38-12.07Z" transform="translate(-115.34 -383.69)"/><path class="cls-2" d="M197.88,418a9.35,9.35,0,0,1-3,2.11c-4.42,2.11-8,.44-9.75-3.2-2.09-4.36-.13-8.26,3.73-10.1a8,8,0,0,1,3.42-.94l.48,2.56a6.82,6.82,0,0,0-2.65.69c-2.27,1.09-3.39,3.32-2,6.17,1.22,2.55,3.51,3.44,6.07,2.22a7.63,7.63,0,0,0,2.22-1.58Z" transform="translate(-115.34 -383.69)"/><path class="cls-2" d="M195.32,404.26l3-.95,1.88,6h0c.13-.62.3-1.2.47-1.78l1.64-5.44,3.77-1.18L203.47,408l7.12,6.28-3.54,1.11-5.16-4.78-.69,1.78,1.38,4.4-3,.95Z" transform="translate(-115.34 -383.69)"/><path class="cls-2" d="M217.12,399l.56,5.41,5.25-.54-.56-5.41,3.17-.33L227,412.18l-3.17.33-.62-5.89-5.24.54.61,5.89-3.17.33L214,399.3Z" transform="translate(-115.34 -383.69)"/><path class="cls-2" d="M238,406.56l-5.2-.2-.13,3.36,5.81.22-.1,2.62-9-.34.53-14.14,8.71.33-.1,2.62-5.52-.21-.11,2.94,5.21.19Z" transform="translate(-115.34 -383.69)"/><path class="cls-2" d="M242.41,399a28.3,28.3,0,0,1,4.25.43c2.07.35,3.47.91,4.33,1.86a3.6,3.6,0,0,1,.8,3.16,3.75,3.75,0,0,1-3,3v.06a3.56,3.56,0,0,1,1.43,2.91,41.17,41.17,0,0,0,.44,4.14l-3.23-.55a19.4,19.4,0,0,1-.4-3.41c-.09-1.83-.61-2.38-1.92-2.63l-.93-.15-.93,5.48-3.13-.53Zm2.1,6.54,1.24.21c1.58.27,2.64-.36,2.85-1.58s-.54-2.08-2-2.32a6,6,0,0,0-1.45-.14Z" transform="translate(-115.34 -383.69)"/><path class="cls-2" d="M261.63,411.71l-5-1.54-1,3.21,5.56,1.72-.78,2.51-8.6-2.67L256,401.42l8.32,2.59-.77,2.5-5.28-1.64-.87,2.81,5,1.55Z" transform="translate(-115.34 -383.69)"/><path class="cls-2" d="M272.28,407.27,280,411.2l-1.2,2.34-4.84-2.48-1.47,2.88,4.52,2.32-1.18,2.31-4.53-2.31-2.59,5.06-2.84-1.45Z" transform="translate(-115.34 -383.69)"/><path class="cls-2" d="M290,426.33c-2.7,3.8-6.6,4.45-10,2s-3.58-6.44-1.23-9.74c2.46-3.46,6.52-4.46,9.91-2.05C292.19,419.11,292.24,423.13,290,426.33Zm-8.43-5.79c-1.62,2.27-1.69,4.62.05,5.86s4,.3,5.56-1.94c1.49-2.09,1.78-4.56,0-5.84S283.13,418.3,281.53,420.54Z" transform="translate(-115.34 -383.69)"/><path class="cls-2" d="M296.61,423.33a26.52,26.52,0,0,1,3.26,2.76c1.51,1.46,2.34,2.71,2.51,4a3.59,3.59,0,0,1-1.13,3.06,3.74,3.74,0,0,1-4.2.74l-.05,0a3.55,3.55,0,0,1-.47,3.21,41.06,41.06,0,0,0-2,3.66l-2.35-2.28a18.43,18.43,0,0,1,1.6-3c1-1.56.85-2.31-.09-3.25l-.68-.66-3.87,4-2.28-2.21Zm-2,6.58.91.87c1.14,1.12,2.37,1.2,3.24.31s.73-2-.33-3a6.16,6.16,0,0,0-1.11-.93Z" transform="translate(-115.34 -383.69)"/></svg>