<?xml version="1.0" encoding="UTF-8"?>
<!-- Generator: Adobe Illustrator 22.0.1, SVG Export Plug-In . SVG Version: 6.00 Build 0)  -->
<svg version="1.1" id="Layer_1" xmlns="http://www.w3.org/2000/svg" xmlns:xlink="http://www.w3.org/1999/xlink" x="0px" y="0px" viewBox="0 0 468.4 538.8" style="enable-background:new 0 0 468.4 538.8;" xml:space="preserve">
<style type="text/css">
	.st0{fill:url(#SVGID_1_);stroke:#E73A1E;stroke-miterlimit:10;}
	.st1{fill:url(#SVGID_2_);stroke:#E73A1E;stroke-miterlimit:10;}
	.st2{fill:url(#SVGID_3_);stroke:#E73A1E;stroke-miterlimit:10;}
	.st3{fill:#FFFFFF;}
</style>
<linearGradient id="SVGID_1_" gradientUnits="userSpaceOnUse" x1="2.2727" y1="337.0546" x2="235.1612" y2="337.0546">
	<stop offset="0" style="stop-color:#E94E1B"/>
	<stop offset="1" style="stop-color:#F39200"/>
</linearGradient>
<polygon class="st0" points="235.2,538.7 2.3,404.3 2.3,135.4 235.2,269.8 "/>
<linearGradient id="SVGID_2_" gradientUnits="userSpaceOnUse" x1="235.1612" y1="337.0546" x2="468.0496" y2="337.0546">
	<stop offset="0" style="stop-color:#F39200"/>
	<stop offset="1" style="stop-color:#E94E1B"/>
</linearGradient>
<polygon class="st1" points="468,404.3 235.2,538.7 235.2,269.8 468,135.4 "/>
<linearGradient id="SVGID_3_" gradientUnits="userSpaceOnUse" x1="2.2727" y1="135.3673" x2="468.0496" y2="135.3673">
	<stop offset="0" style="stop-color:#F39200"/>
	<stop offset="1" style="stop-color:#E94E1B"/>
</linearGradient>
<polygon class="st2" points="468,135.4 235.2,269.8 2.3,135.4 235.2,0.9 "/>
<g>
	<g>
		<path class="st3" d="M133.8,80.7c5.3-1,12.4-1.8,18.7-1.8c9.9,0,15.5,2.3,18.4,7.2c2.4,3.9,2.9,9.9,0.9,16.8    c-3.2,11-12.3,19-23.2,22.2c-0.1,0.2-0.1,0.2-0.1,0.4c5.9,2.3,8,8.6,7.5,17.7c-0.7,12.2-0.6,20.7,0.6,24.1c-5.6,0-8.4,0-14,0    c-0.8-2.6-0.7-10,0.6-20.9c1.4-12.1-1.8-16.6-12.2-17c-4.4,0-6.6,0-11,0c-6,12.7-12.1,25.3-18.1,38c-5.4,0-8.1,0-13.5,0    C103.5,138.4,118.6,109.5,133.8,80.7z M124.1,120.6c4.6,0,6.9,0,11.5,0c11,0.1,21.7-6,25.4-16.6c3.9-11.3-1.4-16.2-11.7-16.2    c-4.7,0-8.1,0.4-10,0.9C134.2,99.3,129.2,110,124.1,120.6z"/>
		<path class="st3" d="M172.3,155.6c3.5,2.1,10,4.4,16.7,4.4c9.5,0,14.5-4,15.2-9.4c0.6-5.5-2.7-8.4-11.1-11.4    c-11.5-4.2-15.6-10.4-13.8-17.8c2.7-10.8,13.1-18.4,24.4-18.5c5.8,0,10.8,1.7,13.8,3.9c-1.3,3.3-2,5-3.3,8.3    c-2.3-1.6-6.4-3.8-12-3.8c-6.5,0-10.7,3.9-11.6,8.6c-1,5.2,2.2,7.7,10.2,10.8c10.5,4.1,16.7,9.7,15.8,18.9    c-1.3,14.1-17,18.9-29.4,19c-8.2,0-15.5-1.8-20.1-4.4C169.2,160.7,170.2,159,172.3,155.6z"/>
		<path class="st3" d="M240,137.8c0.7,13.7,12.4,22.2,25.5,21.8c9.2-0.3,15.2-1.4,19.6-3.2c1.6,3.3,2.4,4.9,4,8.2    c-4.4,1.8-12.6,3.9-24.5,4c-19.2,0.1-36.6-11.3-36.3-31.9c0.3-15.3,10.8-33.8,28.1-33.8c16.2,0,27,15.1,30.1,29.5    c0.5,2.3,0.7,4,0.7,5.3C271.4,137.8,255.7,137.8,240,137.8z M274.5,129.6c-1.4-9.4-7.8-18.4-18.1-18.5    c-11.1-0.1-15.6,10.5-16.4,18.5C251.4,129.6,263,129.6,274.5,129.6z"/>
		<path class="st3" d="M285.8,74.9c3.6,0,5.4,0,9,0c4.2,13.2,8.4,26.3,12.6,39.5c0.1,0,0.2,0,0.3,0c1.7-7,6.8-11.5,16.1-11.4    c17.8,0.2,33.4,17.9,41.3,32c8.6,15.3,3.4,34.3-16.3,33.7c-10.4-0.3-21.4-3.9-29.1-11.7c-0.1,0-0.2,0-0.3,0    c1,4.1,1.5,6.2,2.4,10.3c-4.7,0-7,0-11.6,0c-0.8-4.3-2.3-10.7-3.8-16.3C299.4,125.6,292.6,100.2,285.8,74.9z M316.1,141.9    c0.5,1.4,1.1,2.9,1.9,4.2c5.2,8.3,14.9,12.9,24.2,13.4c14.5,0.7,15.8-14.4,10.7-24.2c-5.4-10.5-16.6-23-29.2-23.4    c-7.1-0.2-12.4,5.5-12.1,14c0.1,1.4,0.3,3,0.9,4.8C314,135.2,314.7,137.5,316.1,141.9z"/>
	</g>
</g>
</svg>